<?xml version="1.0" standalone="no"?>
<!DOCTYPE svg PUBLIC "-//W3C//DTD SVG 20010904//EN"
 "http://www.w3.org/TR/2001/REC-SVG-20010904/DTD/svg10.dtd">
<svg version="1.0" xmlns="http://www.w3.org/2000/svg"
 width="640.000000pt" height="640.000000pt" viewBox="0 0 640.000000 640.000000"
 preserveAspectRatio="xMidYMid meet">
<metadata>
Created by potrace 1.11, written by Peter Selinger 2001-2013
</metadata>
<g transform="translate(0.000000,640.000000) scale(0.100000,-0.100000)"
fill="#000000" stroke="none">
<path d="M2265 6387 c-84 -33 -124 -70 -157 -144 -54 -122 1 -271 123 -334
l39 -19 -4 -163 c-2 -89 -4 -164 -5 -167 -1 -3 -36 -5 -78 -4 -43 2 -140 4
-215 5 l-138 2 -29 52 c-83 147 -283 176 -403 59 -93 -90 -103 -243 -24 -347
59 -78 187 -115 284 -83 58 20 130 83 153 134 7 18 18 32 24 33 21 1 468 -3
655 -6 107 -2 241 -4 298 -4 l103 -1 -1 -272 c-1 -150 -1 -278 -1 -283 1 -6
73 -11 194 -12 105 -1 213 -2 240 -2 l47 -1 0 -435 0 -435 -325 0 -325 0 -1
-22 c0 -29 0 -1111 0 -1118 1 -3 90 -5 199 -5 108 1 202 0 207 -2 7 -2 10
-404 10 -1186 l0 -1182 -563 0 c-404 -1 -565 -4 -570 -12 -6 -9 -7 -98 -3
-135 1 -5 530 -8 1176 -8 l1176 0 -3 77 -3 77 -530 1 -529 0 -1 1165 c0 641 1
1174 3 1185 3 18 11 20 72 21 l69 0 0 -1111 c0 -610 0 -1120 0 -1131 l1 -21
458 1 457 1 3 78 3 77 -386 0 -385 0 -1 23 c-1 39 -1 1246 1 1400 1 144 2 147
23 148 12 0 132 1 267 2 l245 0 5 221 5 221 219 0 219 0 21 -38 c53 -93 130
-140 231 -141 192 0 315 196 231 368 -34 68 -84 112 -155 132 -119 35 -238
-11 -298 -114 -15 -26 -30 -49 -34 -52 -4 -3 -138 -5 -298 -5 l-291 1 -2 -221
-3 -220 -193 -2 -193 -2 1 375 1 374 97 -1 c53 0 213 0 355 0 l257 1 0 284 0
284 34 12 c49 16 111 73 137 126 48 101 29 215 -51 295 -154 154 -415 62 -437
-155 -10 -98 38 -193 122 -244 l44 -27 1 -212 0 -213 -355 0 -355 0 0 -183 0
-182 -280 0 -280 0 0 422 0 423 325 0 325 0 1 33 c0 17 1 105 0 195 l0 162 47
1 c26 0 125 1 220 2 l173 2 -3 132 c-1 73 1 136 5 139 4 4 160 9 347 11 l340
4 1 -48 c5 -303 10 -507 13 -511 5 -4 272 -2 349 3 26 2 47 0 48 -3 0 -4 2
-80 5 -169 l4 -163 -39 -19 c-21 -11 -57 -41 -79 -66 -146 -166 -16 -431 208
-421 72 4 120 25 172 78 74 73 95 193 51 285 -24 51 -92 118 -134 132 l-34 11
0 167 0 168 172 3 172 2 17 -32 c23 -47 72 -96 119 -121 57 -30 174 -30 230 0
160 86 192 287 65 414 -127 127 -348 85 -416 -78 -12 -27 -20 -33 -47 -34 -17
0 -186 -2 -374 -5 -324 -4 -343 -4 -344 13 -1 22 -7 393 -8 481 l-1 64 -420
-5 c-231 -2 -421 -1 -421 2 -1 3 -3 34 -4 69 l-3 62 141 1 c78 0 207 2 287 4
80 2 235 4 345 5 l200 3 21 -37 c56 -98 139 -147 243 -142 81 3 135 29 185 88
135 157 36 404 -170 423 -104 9 -218 -54 -258 -143 l-18 -40 -137 -2 c-75 -1
-153 -3 -173 -4 l-37 -2 -3 140 c-4 191 -3 203 28 210 14 4 47 28 73 54 130
130 96 331 -69 418 -52 28 -172 26 -226 -3 -89 -47 -145 -145 -139 -245 5 -97
57 -178 140 -218 l44 -21 0 -169 1 -169 -97 1 c-54 0 -195 0 -314 -1 l-217 -1
2 -282 1 -283 -140 0 -140 0 -1 578 -2 578 45 20 c51 23 119 87 134 127 42
106 23 217 -49 291 -72 75 -197 100 -288 57 -57 -28 -84 -52 -122 -109 -24
-37 -27 -51 -27 -127 0 -62 5 -94 18 -117 21 -40 84 -102 115 -114 l22 -9 0
-274 0 -275 -159 2 c-88 2 -163 5 -166 9 -6 5 -6 219 -2 456 1 46 0 88 -3 93
-3 4 -144 9 -312 10 -223 0 -308 4 -310 12 -3 10 -3 179 1 302 1 25 7 33 34
43 45 17 103 75 128 129 62 137 -14 306 -158 349 -55 17 -117 17 -158 1z m135
-153 c33 -20 59 -69 53 -104 -13 -88 -124 -128 -182 -66 -87 93 20 234 129
170z m1129 -375 c51 -32 59 -118 15 -162 -72 -72 -184 -26 -184 76 0 38 30 84
64 97 27 11 78 5 105 -11z m1015 -249 c30 -11 66 -65 66 -98 0 -35 -27 -80
-59 -96 -48 -25 -119 -7 -142 37 -51 95 35 195 135 157z m-2914 -25 c25 -10
53 -56 53 -89 2 -105 -121 -154 -187 -75 -28 33 -34 85 -15 120 24 46 94 67
149 44z m3586 -625 c25 -10 63 -44 65 -59 0 -3 3 -18 5 -33 10 -59 -48 -118
-115 -118 -43 0 -101 57 -101 99 0 46 26 90 63 106 39 17 48 18 83 5z m658
-855 c36 -24 53 -84 36 -126 -15 -35 -63 -69 -98 -69 -55 0 -112 56 -112 110
0 33 27 78 58 95 32 18 80 14 116 -10z m-1588 -14 c64 -39 68 -139 7 -179 -42
-27 -111 -21 -140 12 -42 49 -42 104 0 149 39 42 84 48 133 18z m910 -647
c112 -53 52 -221 -70 -199 -74 14 -111 110 -66 168 38 48 80 57 136 31z m-327
-549 c17 -8 35 -30 45 -55 14 -36 14 -44 2 -75 -35 -82 -143 -94 -191 -21 -61
92 44 203 144 151z"/>
<path d="M1110 5050 c-69 -23 -120 -66 -153 -131 -64 -124 -8 -286 120 -347
l33 -16 0 -168 0 -168 -117 4 c-65 2 -125 5 -133 5 -9 1 -21 16 -28 34 -15 41
-71 99 -120 123 -51 26 -173 26 -224 1 -86 -43 -140 -126 -144 -220 -5 -110
45 -195 140 -242 131 -64 291 -10 349 117 l17 36 283 -4 c155 -3 350 -6 434
-7 84 -2 156 -6 160 -10 4 -5 6 -131 4 -282 l-3 -275 174 -1 c95 -1 212 -1
261 -2 55 0 87 -4 88 -11 6 -83 2 -296 -6 -297 -5 -1 -81 -2 -168 -3 l-158 -1
-28 50 c-78 138 -245 175 -377 84 -134 -92 -141 -294 -14 -406 43 -39 125 -64
187 -58 91 9 161 54 207 136 l25 44 165 0 c105 0 167 -3 169 -10 1 -5 2 -146
1 -312 l-1 -303 282 0 283 0 1 -850 2 -850 -406 0 c-263 0 -405 -4 -406 -10 0
-5 -1 -37 -1 -70 0 -33 1 -64 1 -68 1 -5 217 -9 481 -9 l480 0 0 1003 0 1003
-253 0 c-138 0 -266 0 -282 0 l-30 1 0 936 0 936 47 24 c181 92 181 360 -2
455 -165 86 -367 -29 -376 -214 -5 -104 41 -187 130 -238 l51 -28 -1 -378 c-1
-208 -2 -385 -3 -393 -1 -12 -17 -15 -88 -13 -49 1 -132 2 -185 2 l-98 1 4
280 3 280 -36 1 c-20 0 -151 2 -291 4 -140 2 -265 4 -277 4 -23 1 -23 2 -23
169 l0 168 38 17 c157 70 197 288 74 412 -71 72 -169 96 -262 65z m151 -167
c69 -64 24 -183 -69 -183 -42 0 -87 25 -101 57 -50 110 82 208 170 126z m1138
-119 c95 -80 -2 -232 -115 -178 -32 15 -64 65 -64 99 0 25 27 72 52 89 35 25
91 20 127 -10z m-1730 -530 c62 -52 46 -148 -29 -178 -114 -46 -203 99 -109
178 21 18 42 26 69 26 27 0 48 -8 69 -26z m1049 -1028 c61 -31 72 -113 24
-167 -64 -72 -184 -23 -184 75 0 80 87 130 160 92z"/>
<path d="M2000 89 l0 -79 1176 0 1175 0 -2 68 c-2 37 -5 73 -7 80 -4 10 -233
12 -1173 12 l-1169 -1 0 -80z"/>
</g>
</svg>
